<svg width="24" height="22" viewBox="0 0 24 22" fill="none" xmlns="http://www.w3.org/2000/svg">
<path d="M15.5864 17.5662C17.1594 19.1429 18.9832 20.4475 20.9834 21.4269C21.0643 21.467 21.1542 21.4857 21.2444 21.4812C21.3346 21.4767 21.4222 21.4493 21.4988 21.4014C21.5754 21.3535 21.6384 21.2868 21.682 21.2077C21.7255 21.1286 21.7481 21.0396 21.7476 20.9493V16.826C21.7472 16.0048 21.4973 15.2031 21.031 14.5272C20.5648 13.8512 19.9041 13.3329 19.1366 13.0409L17.6998 12.5195C13.867 13.6658 15.475 17.3235 15.5864 17.5662Z" fill="#2779FF"/>
<path d="M20.6965 10.5323C22.3243 10.1343 23.9999 9.52932 23.9999 6.95024V1.51746C24.001 1.34706 23.959 1.17914 23.8778 1.02931C23.7966 0.879485 23.6789 0.752612 23.5355 0.660482C23.3922 0.568352 23.2279 0.513956 23.0578 0.502348C22.8878 0.490741 22.7176 0.522298 22.5631 0.594088C19.5383 1.92343 12.7363 5.5413 12.7363 11.1691C12.7363 13.7522 14.0099 15.8934 15.598 17.5571C12.0239 12.5223 18.3084 11.1014 20.6965 10.5323Z" fill="#2779FF"/>
<path d="M8.39405 17.5662C6.8211 19.1429 4.99732 20.4475 2.99709 21.4269C2.91614 21.467 2.82629 21.4857 2.73608 21.4812C2.64587 21.4767 2.5583 21.4493 2.4817 21.4014C2.40511 21.3535 2.34204 21.2868 2.29849 21.2077C2.25495 21.1286 2.23237 21.0396 2.23292 20.9493V16.826C2.23329 16.0048 2.48317 15.2031 2.94943 14.5272C3.4157 13.8512 4.07635 13.3329 4.84384 13.0409L6.28064 12.5195C10.1134 13.6658 8.50549 17.3235 8.39405 17.5662Z" fill="#2779FF"/>
<path d="M3.30345 10.535C1.6756 10.137 0 9.53205 0 6.95297V1.52019C0.000409274 1.35239 0.0425795 1.18733 0.122707 1.03991C0.202835 0.892475 0.318401 0.767309 0.458981 0.675695C0.599562 0.584081 0.760735 0.5289 0.927967 0.515129C1.0952 0.501358 1.26323 0.529431 1.4169 0.596815C4.44175 1.92615 11.2636 5.54403 11.2636 11.1718C11.2636 13.7549 9.98995 15.8962 8.40191 17.5598C11.9402 12.5251 5.68352 11.1042 3.30345 10.535Z" fill="#2779FF"/>
</svg>
